<mxfile host="app.diagrams.net" modified="2021-03-11T12:15:15.891Z" agent="5.0 (X11; Linux x86_64) AppleWebKit/537.36 (KHTML, like Gecko) Chrome/89.0.4389.82 Safari/537.36" etag="sZWkifgwE4WC24X0xycH" version="14.4.7" type="gitlab">
  <diagram id="_zSXHAouALzeegB6_Zls" name="Page-1">
    <mxGraphModel dx="713" dy="462" grid="1" gridSize="10" guides="1" tooltips="1" connect="1" arrows="1" fold="1" page="1" pageScale="1" pageWidth="827" pageHeight="1169" math="0" shadow="0">
      <root>
        <mxCell id="0" />
        <mxCell id="1" parent="0" />
        <mxCell id="aqkXh1fwxiWS7asC1dlC-2" value="" style="rounded=0;whiteSpace=wrap;html=1;" parent="1" vertex="1">
          <mxGeometry x="290" y="120" width="240" height="280" as="geometry" />
        </mxCell>
        <mxCell id="aqkXh1fwxiWS7asC1dlC-13" value="" style="edgeStyle=orthogonalEdgeStyle;rounded=0;orthogonalLoop=1;jettySize=auto;html=1;" parent="1" source="aqkXh1fwxiWS7asC1dlC-11" target="aqkXh1fwxiWS7asC1dlC-12" edge="1">
          <mxGeometry relative="1" as="geometry" />
        </mxCell>
        <mxCell id="aqkXh1fwxiWS7asC1dlC-40" style="edgeStyle=orthogonalEdgeStyle;rounded=0;orthogonalLoop=1;jettySize=auto;html=1;startArrow=classic;startFill=1;" parent="1" source="aqkXh1fwxiWS7asC1dlC-11" edge="1">
          <mxGeometry relative="1" as="geometry">
            <mxPoint x="153" y="220" as="targetPoint" />
            <Array as="points">
              <mxPoint x="153" y="180" />
            </Array>
          </mxGeometry>
        </mxCell>
        <mxCell id="aqkXh1fwxiWS7asC1dlC-11" value="&lt;font style=&quot;font-size: 15px&quot;&gt;Apache&lt;/font&gt;" style="rounded=1;whiteSpace=wrap;html=1;absoluteArcSize=1;arcSize=14;strokeWidth=2;" parent="1" vertex="1">
          <mxGeometry x="360" y="130" width="100" height="100" as="geometry" />
        </mxCell>
        <mxCell id="aqkXh1fwxiWS7asC1dlC-37" style="edgeStyle=orthogonalEdgeStyle;rounded=0;orthogonalLoop=1;jettySize=auto;html=1;entryX=1;entryY=0.5;entryDx=0;entryDy=0;startArrow=classic;startFill=1;" parent="1" source="aqkXh1fwxiWS7asC1dlC-12" target="aqkXh1fwxiWS7asC1dlC-33" edge="1">
          <mxGeometry relative="1" as="geometry">
            <Array as="points">
              <mxPoint x="410" y="430" />
            </Array>
          </mxGeometry>
        </mxCell>
        <mxCell id="aqkXh1fwxiWS7asC1dlC-12" value="&lt;font style=&quot;font-size: 13px&quot;&gt;PM2&lt;br&gt;7000 &amp;amp; 7001 port&lt;/font&gt;" style="rounded=1;whiteSpace=wrap;html=1;absoluteArcSize=1;arcSize=14;strokeWidth=2;" parent="1" vertex="1">
          <mxGeometry x="360" y="290" width="100" height="100" as="geometry" />
        </mxCell>
        <mxCell id="aqkXh1fwxiWS7asC1dlC-17" value="Super Admin" style="aspect=fixed;html=1;points=[];align=center;image;fontSize=12;image=img/lib/azure2/azure_stack/User_Subscriptions.svg;" parent="1" vertex="1">
          <mxGeometry x="830" y="120" width="68" height="66" as="geometry" />
        </mxCell>
        <mxCell id="aqkXh1fwxiWS7asC1dlC-18" value="End users" style="pointerEvents=1;shadow=0;dashed=0;html=1;strokeColor=none;labelPosition=center;verticalLabelPosition=bottom;verticalAlign=top;outlineConnect=0;align=center;shape=mxgraph.office.users.users;fillColor=#2072B8;" parent="1" vertex="1">
          <mxGeometry x="822.5" y="270" width="83" height="80" as="geometry" />
        </mxCell>
        <mxCell id="aqkXh1fwxiWS7asC1dlC-19" value="Database&lt;br&gt;" style="points=[[0,0,0],[0.25,0,0],[0.5,0,0],[0.75,0,0],[1,0,0],[0,1,0],[0.25,1,0],[0.5,1,0],[0.75,1,0],[1,1,0],[0,0.25,0],[0,0.5,0],[0,0.75,0],[1,0.25,0],[1,0.5,0],[1,0.75,0]];outlineConnect=0;fontColor=#232F3E;gradientColor=#4D72F3;gradientDirection=north;fillColor=#3334B9;strokeColor=#ffffff;dashed=0;verticalLabelPosition=bottom;verticalAlign=top;align=center;html=1;fontSize=12;fontStyle=0;aspect=fixed;shape=mxgraph.aws4.resourceIcon;resIcon=mxgraph.aws4.documentdb_with_mongodb_compatibility;" parent="1" vertex="1">
          <mxGeometry x="114" y="221" width="78" height="78" as="geometry" />
        </mxCell>
        <mxCell id="aqkXh1fwxiWS7asC1dlC-28" value="" style="endArrow=classic;html=1;entryX=1.011;entryY=0.149;entryDx=0;entryDy=0;entryPerimeter=0;exitX=-0.007;exitY=0.619;exitDx=0;exitDy=0;exitPerimeter=0;" parent="1" source="aqkXh1fwxiWS7asC1dlC-17" target="aqkXh1fwxiWS7asC1dlC-2" edge="1">
          <mxGeometry width="50" height="50" relative="1" as="geometry">
            <mxPoint x="660" y="220" as="sourcePoint" />
            <mxPoint x="710" y="170" as="targetPoint" />
          </mxGeometry>
        </mxCell>
        <mxCell id="aqkXh1fwxiWS7asC1dlC-29" value="admin.atunwapodcasts.com" style="text;html=1;align=center;verticalAlign=middle;resizable=0;points=[];autosize=1;" parent="1" vertex="1">
          <mxGeometry x="610" y="143" width="160" height="20" as="geometry" />
        </mxCell>
        <mxCell id="aqkXh1fwxiWS7asC1dlC-30" value="" style="endArrow=classic;html=1;entryX=1.022;entryY=0.72;entryDx=0;entryDy=0;entryPerimeter=0;" parent="1" target="aqkXh1fwxiWS7asC1dlC-2" edge="1">
          <mxGeometry width="50" height="50" relative="1" as="geometry">
            <mxPoint x="820" y="322" as="sourcePoint" />
            <mxPoint x="650" y="260" as="targetPoint" />
          </mxGeometry>
        </mxCell>
        <mxCell id="aqkXh1fwxiWS7asC1dlC-31" value="atunwapodcasts.com/?pubid=myjoyonline" style="text;html=1;align=center;verticalAlign=middle;resizable=0;points=[];autosize=1;" parent="1" vertex="1">
          <mxGeometry x="570" y="300" width="240" height="20" as="geometry" />
        </mxCell>
        <mxCell id="aqkXh1fwxiWS7asC1dlC-32" value="atunwapodcasts.com/?pubid=atunwa-internal" style="text;html=1;align=center;verticalAlign=middle;resizable=0;points=[];autosize=1;" parent="1" vertex="1">
          <mxGeometry x="560" y="320" width="260" height="20" as="geometry" />
        </mxCell>
        <mxCell id="aqkXh1fwxiWS7asC1dlC-34" value="" style="edgeStyle=orthogonalEdgeStyle;rounded=0;orthogonalLoop=1;jettySize=auto;html=1;" parent="1" source="aqkXh1fwxiWS7asC1dlC-33" edge="1">
          <mxGeometry relative="1" as="geometry">
            <mxPoint x="153" y="320" as="targetPoint" />
          </mxGeometry>
        </mxCell>
        <mxCell id="aqkXh1fwxiWS7asC1dlC-33" value="Object Storage" style="aspect=fixed;perimeter=ellipsePerimeter;html=1;align=center;shadow=0;dashed=0;fontColor=#4277BB;labelBackgroundColor=#ffffff;fontSize=12;spacingTop=3;image;image=img/lib/ibm/vpc/ObjectStorage.svg;" parent="1" vertex="1">
          <mxGeometry x="123" y="400" width="60" height="60" as="geometry" />
        </mxCell>
        <mxCell id="aqkXh1fwxiWS7asC1dlC-42" style="edgeStyle=orthogonalEdgeStyle;rounded=0;orthogonalLoop=1;jettySize=auto;html=1;entryX=1;entryY=0.5;entryDx=0;entryDy=0;startArrow=none;startFill=0;" parent="1" source="aqkXh1fwxiWS7asC1dlC-41" target="aqkXh1fwxiWS7asC1dlC-12" edge="1">
          <mxGeometry relative="1" as="geometry" />
        </mxCell>
        <mxCell id="aqkXh1fwxiWS7asC1dlC-41" value="Streamguys server" style="points=[[0,0,0],[0.25,0,0],[0.5,0,0],[0.75,0,0],[1,0,0],[0,1,0],[0.25,1,0],[0.5,1,0],[0.75,1,0],[1,1,0],[0,0.25,0],[0,0.5,0],[0,0.75,0],[1,0.25,0],[1,0.5,0],[1,0.75,0]];outlineConnect=0;fontColor=#232F3E;gradientColor=#4AB29A;gradientDirection=north;fillColor=#116D5B;strokeColor=#ffffff;dashed=0;verticalLabelPosition=bottom;verticalAlign=top;align=center;html=1;fontSize=12;fontStyle=0;aspect=fixed;shape=mxgraph.aws4.resourceIcon;resIcon=mxgraph.aws4.server_migration_service;" parent="1" vertex="1">
          <mxGeometry x="570" y="430" width="78" height="78" as="geometry" />
        </mxCell>
      </root>
    </mxGraphModel>
  </diagram>
</mxfile>
